<?xml version="1.0" standalone="no"?>
<!DOCTYPE svg PUBLIC "-//W3C//DTD SVG 20010904//EN"
 "http://www.w3.org/TR/2001/REC-SVG-20010904/DTD/svg10.dtd">
<svg version="1.0" xmlns="http://www.w3.org/2000/svg"
 width="1080.000000pt" height="1080.000000pt" viewBox="0 0 1080.000000 1080.000000"
 preserveAspectRatio="xMidYMid meet">
<metadata>
Created by potrace 1.14, written by Peter Selinger 2001-2017
</metadata>
<g transform="translate(0.000000,1080.000000) scale(0.100000,-0.100000)"
fill="#000000" stroke="none">
<path d="M5205 7600 l-390 -390 393 0 392 0 0 390 c0 215 -1 390 -3 390 -1 0
-178 -175 -392 -390z"/>
<path d="M4490 6923 l-355 -4 -370 -635 c-203 -350 -370 -642 -370 -650 0 -9
106 -168 235 -354 199 -287 237 -337 247 -323 7 9 168 283 358 609 l347 594
124 0 124 0 2 -1342 3 -1343 383 -3 382 -2 0 1347 0 1346 990 -6 c544 -4 1219
-4 1500 0 l510 6 0 379 0 378 -1308 0 c-720 0 -1565 2 -1878 3 -313 2 -729 2
-924 0z"/>
<path d="M1420 5195 l0 -1725 380 0 380 0 2 1056 3 1056 198 -283 c602 -864
1014 -1457 1135 -1631 l137 -198 452 0 c306 0 454 3 458 11 4 5 -15 41 -42 79
-26 38 -226 325 -443 637 -217 312 -498 717 -624 898 -499 718 -960 1381
-1110 1598 l-157 227 -385 0 -384 0 0 -1725z"/>
<path d="M8840 5859 l0 -1062 -382 551 -383 552 -468 0 -468 0 19 -27 c259
-368 1125 -1621 1126 -1629 2 -15 410 -603 415 -598 2 2 31 -34 63 -81 l59
-84 394 -1 395 0 0 1720 0 1720 -385 0 -385 0 0 -1061z"/>
<path d="M6082 4688 l3 -1213 1205 4 c663 2 1206 5 1208 6 2 1 -115 172 -258
379 l-261 376 -565 0 -564 0 0 830 0 830 -385 0 -385 0 2 -1212z"/>
</g>
</svg>
